#!OML:ASF F:\VICON\USERDATA\INSTALL\rory3\rory3.ASF
:FULLY-SPECIFIED
:DEGREES
136
root -4.34694 19.0316 -20.0645 177.489 20.4929 -145.28
lowerback 30.6629 -14.7316 6.53038
upperback 2.22706 -16.2812 0.742486
thorax -14.379 -7.35599 4.04359
lowerneck -5.02981 -14.8922 -11.4595
upperneck 4.94862 -18.9302 -0.378643
head 3.62007 -9.59331 0.697146
rclavicle 1.27222e-013 -9.54166e-014
rhumerus -12.6007 -38.7087 -8.93756
rradius 19.0722
rwrist -5.68452
rhand -2.60288 19.3727
rfingers 7.12502
rthumb 23.095 -9.26322
lclavicle 1.27222e-013 -9.54166e-014
lhumerus -99.0538 -178.014 223.526
lradius 62.0445
lwrist 74.2914
lhand 22.601 20.1194
lfingers 7.12502
lthumb 46.9499 42.8077
rfemur -132.198 -19.9161 82.69
rtibia 36.4276
rfoot 62.4641 3.87854
rtoes 61.6745
lfemur 21.1918 -14.6867 -0.022416
ltibia 2.8625e-014
lfoot -2.75358 44.8439
ltoes 19.3437
137
root -4.39688 19.1054 -20.0518 178.326 21.1629 -143.342
lowerback 30.7289 -14.6306 8.34256
upperback 2.48418 -15.3357 1.21942
thorax -14.3375 -6.96481 3.27262
lowerneck -5.03244 -14.9211 -8.89766
upperneck 3.51638 -19.0386 -2.35975
head 2.59874 -9.61008 -0.149221
rclavicle -4.41302e-014 3.18055e-015
rhumerus -15.6939 -44.5176 -5.02299
rradius 18.2532
rwrist -1.86339
rhand -4.39445 19.4364
rfingers 7.12502
rthumb 21.3751 -9.40455
lclavicle -4.41302e-014 3.18055e-015
lhumerus -97.4437 -178.352 224.873
lradius 60.5788
lwrist 72.8888
lhand 20.5592 20.0657
lfingers 7.12502
lthumb 45.0556 43.5434
rfemur -133.583 -21.235 80.2021
rtibia 37.1799
rfoot 58.1243 0.710898
rtoes 61.8242
lfemur 21.9012 -15.0235 2.04109
ltibia -6.36111e-015
lfoot -9.07364 49.152
ltoes 27.7985
138
root -4.447 19.1578 -20.0685 178.756 21.9574 -142.756
lowerback 30.3062 -14.6151 8.64543
upperback 2.5338 -15.1533 1.72126
thorax -14.0189 -6.88963 3.48344
lowerneck -4.65927 -14.6855 -9.4927
upperneck 2.99838 -18.7351 -2.19795
head 2.42762 -9.43943 0.0518603
rclavicle -6.36111e-015 5.725e-014
rhumerus -23.5465 -69.3054 6.15219
rradius 15.6028
rwrist 21.7831
rhand -4.07546 23.1003
rfingers 7.12502
rthumb 21.6815 -5.70562
lclavicle -6.36111e-015 5.725e-014
lhumerus -97.4757 -179.654 225.952
lradius 58.9794
lwrist 70.94
lhand 18.9423 19.7523
lfingers 7.12502
lthumb 43.5485 43.8016
rfemur -135.773 -21.8557 78.6442
rtibia 37.3541
rfoot 55.211 -0.838072
rtoes 61.4991
lfemur 20.1054 -15.0831 2.84257
ltibia 4.73685
lfoot -20.1043 50.3173
ltoes 35.8328
139
root -4.4992 19.2018 -20.0842 179.09 22.7221 -142.319
lowerback 30.2911 -14.5555 8.61588
upperback 2.41964 -14.9511 2.35747
thorax -13.9558 -6.77327 4.06904
lowerneck -4.37365 -14.3916 -10.1556
upperneck 2.69489 -18.314 -2.38742
head 2.30841 -9.22191 0.147446
rclavicle -1.18078e-013 1.24042e-013
rhumerus -21.3751 -65.3391 4.93933
rradius 15.9564
rwrist 17.4102
rhand -6.14487 22.8661
rfingers 7.12502
rthumb 19.6931 -6.15635
lclavicle -1.18078e-013 1.24042e-013
lhumerus -97.7771 -181.069 226.965
lradius 57.3056
lwrist 68.9541
lhand 17.5434 19.2704
lfingers 7.12502
lthumb 42.2401 43.7795
rfemur -138.227 -22.3462 77.9375
rtibia 37.4987
rfoot 53.9619 -2.31862
rtoes 62.7163
lfemur 19.8387 -15.2263 3.45824
ltibia 6.35144
lfoot -28.8484 52.0494
ltoes 40.9494
140
root -4.53826 19.2269 -20.1108 179.685 23.8024 -141.131
lowerback 30.0281 -14.4094 9.63531
upperback 2.58782 -14.32 2.76767
thorax -13.7268 -6.50561 3.68254
lowerneck -4.66837 -14.5734 -9.89105
upperneck 2.92094 -18.5053 -2.79609
head 2.37122 -9.33134 -0.0531735
rclavicle 8.62725e-014 3.18055e-015
rhumerus -21.2221 -59.5454 5.09911
rradius 16.4802
rwrist 11.4907
rhand -8.39082 22.3748
rfingers 7.12502
rthumb 17.5328 -6.85456
lclavicle 8.62725e-014 3.18055e-015
lhumerus -97.3705 -181.852 227.999
lradius 55.5005
lwrist 66.9484
lhand 16.709 18.9843
lfingers 7.12502
lthumb 41.4578 43.7534
rfemur -137.819 -24.1828 74.025
rtibia 37.4086
rfoot 49.0434 -8.37214
rtoes 62.3986
lfemur 20.8842 -15.1443 4.67047
ltibia 6.24921
lfoot -41.3349 50.324
ltoes 46.2664
141
root -4.58088 19.2544 -20.0667 180.489 25.3909 -139.517
lowerback 30.6595 -13.9778 10.0573
upperback 2.6333 -13.3176 3.45998
thorax -13.8079 -6.01073 3.86111
lowerneck -4.629 -14.5731 -10.1846
upperneck 3.01627 -18.4953 -2.62269
head 2.44677 -9.32965 0.0334508
rclavicle -1.8805e-013 9.22361e-014
rhumerus -18.8632 -44.8138 1.65593
rradius 18.4313
rwrist -4.39526
rhand -11.5948 18.3022
rfingers 7.12502
rthumb 14.4475 -11.1749
lclavicle -1.8805e-013 9.22361e-014
lhumerus -97.06 -182.61 228.978
lradius 53.59
lwrist 64.5182
lhand 16.0372 18.7536
lfingers 7.12502
lthumb 40.8271 43.7247
rfemur -139.835 -23.2351 76.3405
rtibia 37.3174
rfoot 49.6512 -7.25163
rtoes 61.0096
lfemur 22.5734 -14.7038 6.43552
ltibia 4.73464
lfoot -49.9152 48.1204
ltoes 48.2331
142
root -4.63178 19.2725 -20.0691 181.042 25.9412 -139.168
lowerback 30.34 -13.8381 10.1375
upperback 2.5546 -13.0505 3.97168
thorax -13.6559 -5.88246 4.19747
lowerneck -5.21545 -14.9008 -10.9091
upperneck 4.08507 -18.7906 -2.30204
head 3.04997 -9.52301 0.0922481
rclavicle 2.10712e-014 4.6118e-014
rhumerus -19.5957 -45.8824 3.47501
rradius 18.1184
rwrist -3.94771
rhand -12.4615 17.1573
rfingers 7.12502
rthumb 13.6123 -12.3777
lclavicle 2.10712e-014 4.6118e-014
lhumerus -97.2536 -183.558 229.784
lradius 51.8723
lwrist 61.8706
lhand 14.727 18.4385
lfingers 7.12502
lthumb 39.5946 43.7856
rfemur -142.816 -23.6337 76.5569
rtibia 37.081
rfoot 49.474 -8.02753
rtoes 60.8242
lfemur 25.483 -15.0324 6.70622
ltibia -3.18055e-015
lfoot -51.4609 48.7055
ltoes 50.052
143
root -4.66518 19.278 -20.083 181.176 26.4994 -139.772
lowerback 29.8116 -13.4672 9.42003
upperback 2.49957 -12.8737 4.26637
thorax -13.3118 -5.79496 4.67943
lowerneck -5.52402 -15.1116 -11.3182
upperneck 4.78753 -19.0093 -1.95957
head 3.45175 -9.65812 0.163071
rclavicle -3.04538e-013 3.81667e-014
rhumerus -22.924 -54.52 8.53012
rradius 17.7118
rwrist 4.50459
rhand -12.0291 17.2381
rfingers 7.12502
rthumb 14.029 -12.2685
lclavicle -3.04538e-013 3.81667e-014
lhumerus -97.3113 -184.202 230.788
lradius 50.0452
lwrist 58.8868
lhand 13.1602 18.505
lfingers 7.12502
lthumb 38.1172 44.2722
rfemur -145.534 -24.0764 75.4406
rtibia 37.0803
rfoot 48.5417 -9.49935
rtoes 61.0369
lfemur 25.6522 -15.3131 6.38424
ltibia -6.99722e-014
lfoot -47.7479 49.5022
ltoes 50.0443
144
root -4.68878 19.2715 -20.1009 181.723 28.0945 -138.555
lowerback 29.8965 -12.9905 9.65837
upperback 2.73146 -11.9926 4.8819
thorax -12.9834 -5.36287 4.81737
lowerneck -5.79977 -15.0993 -11.0819
upperneck 4.9302 -18.9979 -1.76332
head 3.54987 -9.65122 0.160369
rclavicle 1.09729e-013 -3.49861e-014
rhumerus -25.2187 -57.1284 11.8592
rradius 17.6865
rwrist 6.69441
rhand -12.2045 17.1437
rfingers 7.12502
rthumb 13.86 -12.3745
lclavicle 1.09729e-013 -3.49861e-014
lhumerus -97.4365 -185.214 231.591
lradius 48.4609
lwrist 56.2662
lhand 11.6146 18.7352
lfingers 7.12502
lthumb 36.6561 44.8878
rfemur -146.364 -24.1167 75.5222
rtibia 37.2456
rfoot 46.8379 -11.4859
rtoes 63.4764
lfemur 26.7316 -14.925 7.69773
ltibia 1.00187e-013
lfoot -42.0454 50.2977
ltoes 50.044
145
root -4.71275 19.2573 -20.1316 182.069 27.9013 -138.812
lowerback 28.9091 -12.8967 9.68262
upperback 2.63588 -11.964 5.26428
thorax -12.6048 -5.36575 5.05276
lowerneck -6.64318 -16.0299 -11.6709
upperneck 7.02792 -20.0232 -1.8653
head 4.08959 -10.2386 -0.100868
rclavicle -9.93923e-015 -5.40694e-014
rhumerus -27.6891 -58.3648 15.4243
rradius 17.4402
rwrist 7.70749
rhand -12.7054 17.3339
rfingers 7.12502
rthumb 13.3771 -12.2166
lclavicle -9.93923e-015 -5.40694e-014
lhumerus -97.5678 -185.756 232.558
lradius 46.9112
lwrist 53.3013
lhand 9.84068 18.9843
lfingers 7.12502
lthumb 34.9752 45.5462
rfemur -149.248 -26.1585 73.7784
rtibia 37.4507
rfoot 42.7065 -13.3821
rtoes 62.6034
lfemur 26.5047 -15.7656 7.5937
ltibia -1.59028e-014
lfoot -36.1897 51.3093
ltoes 49.465
